<svg xmlns="http://www.w3.org/2000/svg" width="75" height="34" viewBox="0 0 75 34">
    <g fill="#98A2B2" fill-rule="nonzero">
        <path d="M65.976 31.202v-.75h.55c.367 0 .466.113.466.331 0 .219-.1.405-.53.42m-.1.457c.158.014.31 0 .425.12.116.119.132.374.164.625.023.172.07.36.102.524h.585a4.02 4.02 0 0 1-.174-.848c-.047-.32-.091-.5-.498-.579v-.014a.678.678 0 0 0 .607-.684c0-.664-.559-.81-1.097-.81h-.952v2.935h.46v-1.27h.378zm.144 2.34A2.5 2.5 0 1 0 64 31.494 2.492 2.492 0 0 0 66.51 34h-.004zm0-.437a2.06 2.06 0 1 1 .004 0h-.004z"/>
        <path d="M61.622 7.288h-4.256v4.246h4.256a1.825 1.825 0 0 1 0 3.644h-4.256v4.25h4.256a6.074 6.074 0 0 0 6.078-6.07 6.074 6.074 0 0 0-6.078-6.07M37.37 29.756c4.932 0 9.424-2.837 11.536-7.288h5.424v7.288h3.037v-7.288h4.256a9.124 9.124 0 0 0 7.9-4.555 9.1 9.1 0 0 0 0-9.11 9.124 9.124 0 0 0-7.9-4.555h-7.297V15.18h-4.316c-.905-6.273-6.287-10.93-12.633-10.932H22.4L7.512 29.756h3.552l4.256-7.288H30.62v7.288h6.75zM75 13.358c0 3.543-1.41 6.94-3.92 9.445a13.382 13.382 0 0 1-9.458 3.91V34H50.075v-5.687a16.998 16.998 0 0 1-12.706 5.685H26.363V26.71h-8.6l-4.254 7.288H0L19.855 0H37.37a17.01 17.01 0 0 1 12.706 5.689V0h11.547C69.01 0 75 5.98 75 13.358zm-48.637-6.07v7.892h-6.787l-2.48 4.249h13.52V7.288h-4.253zm20.733 9.71a9.708 9.708 0 0 1-2.849 6.869 9.733 9.733 0 0 1-6.878 2.845h-3.71v-4.248h3.71a5.474 5.474 0 0 0 4.74-2.733 5.46 5.46 0 0 0 0-5.466 5.474 5.474 0 0 0-4.74-2.733h-3.71V7.288h3.71c5.37 0 9.725 4.346 9.727 9.71z"/>
    </g>
</svg>
