<svg xmlns="http://www.w3.org/2000/svg" width="111" height="50" viewBox="0 0 111 50">
    <g fill="#98A2B2" fill-rule="nonzero">
        <path d="M15.706 37.632c-.604 1.687-4.304 9.888-4.984 11.267h2.643c.227-.843.529-1.686.906-2.682h4.38c.453 1.226.83 2.146.982 2.682h3.096c-.831-1.84-4.531-10.117-4.984-11.267h-2.039zm1.057 7.205h-1.661c.604-1.456 1.133-2.76 1.661-3.832l1.586 3.832h-1.586zm34.584-1.61c1.435 0 2.567-.996 2.567-2.529s-1.132-2.53-2.567-2.53c-1.51 0-2.567.997-2.567 2.53s1.057 2.53 2.567 2.53zm0-4.522c.68 0 1.133.69 1.133 1.917 0 1.226-.453 1.916-1.133 1.916-.755 0-1.208-.614-1.208-1.916 0-1.227.453-1.917 1.208-1.917zm-6.192-.996h-2.718c-1.133 1.61-2.115 2.99-4.078 5.059 0-1.303.076-3.833.151-5.059h-3.02c.075 1.303.15 4.292.15 5.365 0 .997 0 4.369-.15 5.902h3.096c-.151-1.38-.151-3.986-.151-5.365.981 1.303 3.171 4.138 3.85 5.365h3.55c-.68-.69-4.38-5.519-4.984-6.362.68-.843 3.7-4.292 4.304-4.905zM7.93 42.768c1.434-.384 2.34-1.38 2.34-2.53 0-1.84-2.114-2.606-4.077-2.606H.453c.151 1.457.151 3.833.151 5.365 0 2.3 0 4.446-.15 5.902h5.134c2.567 0 5.21-.843 5.21-3.066 0-1.38-.982-2.452-2.87-3.065zm-3.172 4.828H3.473c-.075-1.686-.075-2.53-.075-4.599 0-1.762 0-2.529.075-4.062.227 0 .605-.076.982-.076 2.19 0 2.945.46 2.945 1.686 0 1.15-1.284 1.533-2.19 1.533h-.377l-.604 1.61h.604c1.359 0 3.096.536 3.096 1.992 0 1.303-1.058 1.916-3.172 1.916zm29.147-9.887h-2.643c.151.996.302 3.909.302 5.902v1.15c-.15-.384-.302-.69-1.057-1.764l-3.549-5.288h-2.945c.076 1.303.151 4.292.151 5.365 0 .997 0 4.369-.15 5.902h2.567c-.076-.843-.151-2.836-.151-4.216v-4.138c.075.306.226.613.604 1.226l4.757 7.128h2.114c-.15-1.533-.226-4.905-.226-5.902.075-1.15.15-4.139.226-5.365zm57.992 2.606c0-.69.755-.996 1.737-.996 1.283 0 2.945.46 3.775 1.073v-2.453c-.83-.23-2.039-.46-3.398-.46-2.794 0-4.681 1.073-4.681 3.066 0 3.755 6.493 3.449 6.493 5.672 0 .843-.83 1.226-1.963 1.226-1.435 0-3.247-.537-4.304-1.303v2.453c.906.306 2.19.613 3.7.613 3.247 0 5.21-1.303 5.21-3.45-.075-3.678-6.57-3.448-6.57-5.441zm-19.029 5.518c-.83-2.606-1.585-5.441-2.34-8.124h-1.964c-.377 1.84-1.661 5.825-2.492 7.894-.528-1.916-1.359-4.752-2.038-7.894h-2.87c1.208 3.756 2.341 7.588 3.474 11.267h2.19c.755-2.07 1.887-5.289 2.34-6.515.378 1.38 1.586 5.059 2.04 6.515h2.415c1.36-3.756 2.643-7.511 4.002-11.267h-2.416c-.075 1.073-1.284 4.982-2.34 8.124zm8.986-1.916l4.078.077v-1.686l-4.078.076c0-.92 0-2.146.076-3.219h1.359c1.585 0 3.096 0 4.606.154v-1.61h-8.91c.075 1.303.15 4.292.15 5.365 0 .997 0 4.369-.15 5.902h9.287v-1.61c-2.114.154-4.153.154-6.267.154-.15-1.15-.15-2.606-.15-3.603zm26.504-4.445v-1.763H98.163v1.763c1.51-.153 1.964-.23 3.625-.23 0 1.38.075 2.989.075 3.832 0 .997 0 4.369-.226 5.902h3.096c-.151-1.533-.151-4.905-.151-5.902 0-.766 0-2.452.075-3.832 1.812 0 2.265.077 3.7.23zm-52.555 4.675h-1.51c0 .46.075 1.456.075 1.993h-1.736c0-.613 0-1.533.075-1.993h-1.51c.075.537.075 1.84.075 2.3 0 .383 0 1.839-.075 2.529h1.51c-.075-.537-.075-1.303-.075-2.146h1.736c0 .766 0 1.686-.075 2.146h1.51c-.075-.767-.075-2.146-.075-2.53 0-.46 0-1.762.075-2.299zm2.643 4.216v-1.38h1.661v-.843l-1.586.077v-1.303h.982c.453 0 .906 0 1.435.076v-.843h-3.851c0 .537.075 1.84.075 2.3 0 .46 0 1.916-.075 2.529h4.002v-.767c-.378.077-1.133.077-1.586.077h-1.057v.077zM45.91 44.99c.453-.076.982-.076 1.586-.076v1.61c0 .382 0 1.839-.076 2.528h1.51c-.075-.766-.075-2.146-.075-2.529 0-.306 0-1.073.076-1.61.453 0 1.057 0 1.51.154v-.843h-4.53v.766zm11.93-3.985v-.767h-1.585v-.46-.92h.83c.378 0 .907 0 1.435.077v-.766h-3.7c0 .536.076 1.84.076 2.3 0 .382 0 1.839-.076 2.528h1.51c-.075-.536-.075-1.38-.075-2.069h1.586v.077zM109.565 37.632a.844.844 0 0 1 0 1.687.844.844 0 0 1 0-1.687zm0 1.61c.378 0 .68-.307.68-.69a.682.682 0 0 0-.68-.69.682.682 0 0 0-.68.69c.076.383.303.69.68.69zm.227-.23l-.151-.383h-.076-.075v.383h-.151v-.996h.226c.227 0 .378.076.378.306 0 .153-.076.23-.151.23l.15.383h-.15v.077zm-.378-.537h.076c.15 0 .226 0 .226-.153s-.075-.153-.226-.153h-.076v.306z"/>
        <g>
            <path d="M86.308 30.658a.844.844 0 0 1 0 1.686.844.844 0 0 1 0-1.686zm0 1.533c.378 0 .68-.307.68-.69a.682.682 0 0 0-.68-.69.682.682 0 0 0-.68.69c0 .383.303.69.68.69zm.151-.23l-.15-.384h-.076-.076v.384h-.15v-.997h.226c.226 0 .377.077.377.307 0 .153-.075.23-.15.23l.15.383h-.15v.077zm-.302-.537h.076c.15 0 .226 0 .226-.153s-.075-.153-.226-.153h-.076v.306zM32.47 7.205l-1.813 1.762c.151.23.227.614.453.69.302.077.755 0 1.057 0 .076-.153.302-.536.302-.613l.453-.23 1.586 1.763h-.981l.453.843h-.529c.151.46.302 1.226.529 1.686l1.208 1.38c.226.076 1.812.076 2.039 0 .302-.077 1.283-1.686 1.51-1.993.528.077.906.23 1.434.307.151-.843-.075-2.223-.15-2.913.452.077.83.307 1.359.383-.151-.996-.378-1.762-.604-2.606l1.66-.383 1.058 1.456c-.151.307-.604 1.917-.604 1.917l1.359 3.295s-.529 1.303-.68 3.143l-2.793-.46-2.341-1.15-.68.46s-4.002.307-5.663-.23l-.453-.766-1.963-.154-.378-.613c-.227-.153-.604 0-.83-.153-.152-.077-.454-1.073-.831-1.38-.302-.23-.83-.69-1.057-1.073l.15-.383c.303-.077 1.51 0 2.266.153l.075.307-.226.613c.15.383.377 1.226.755 1.38 0 0 2.34.23 3.473.076.076-.23-.226-1.916-.226-1.916l-.755-.46c-.076-.076-.378-.92-.378-.996h-2.038c.226-.383.528-.69.528-.69l-.377-.996c.755-.69 1.434-1.456 2.265-2.07l-.076-.613h.982l.68.997-1.209.23zM57.01 17.092l-2.114.076.755 1.073s.151 3.68-.302 5.979c0 0-.378-.23-.529-.537-.226.92-.302 1.916-.604 2.76H47.42s.227-.997.529-1.15c.302-.23 2.945-1.227 2.945-1.227.302-.69-.83-5.365-1.208-5.365-.227 0-3.55 5.749-4.153 6.362l.302.69-.227.69h-7.777c.075-.384.83-1.38.83-1.38s2.794-1.227 3.02-1.15c.454.153 1.813.843 1.813.843.453-.383 2.114-2.223 4.153-8.584l1.51.843c.529-1.226.906-2.683 1.133-4.215l1.737.613c.377-1.073 0-5.442-.151-5.902l2.038.307.68 1.38c.302.153.83.153 1.133.153.83.153 1.66.383 2.567.536-.151-.306-.302-.536-.378-.843-.075-.23-.075-.307-.15-.536.754.23 2.34.46 2.34.46-.377-1.763-1.661-3.45-1.661-3.45l3.85 1.073.454.997c-.529.536-1.888 3.372-1.888 3.372l.83 4.522-.83 2.376-3.85-.766z"/>
            <path d="M73.245 26.519c.68-.843 2.265-1.993 3.247-2.53l-.151-1.379c-.755-.766-2.19-2.53-2.19-2.53l-.982-4.674-.15-2.76s.83-2.682.905-3.372c0-.537-3.17-5.978-3.775-6.438-.604-.383-2.265-.997-3.096-1.226-1.133-.307-2.19-.537-3.322-.844.075-.153.075-.076.075-.383-2.114.46-4.153.92-6.192 1.533-.68.23-2.34.69-3.096.92l-3.549.153-.15-.306s-3.927-1.38-4.607-1.38c-.528.077-4.757 2.53-5.739 3.449l-.453-.153c-.528.153-2.34 1.303-2.34 1.303l-.604.23-.454.383.454-.077.302.077 4.002-.537-.302-.306s4.228-2.376 4.455-2.53c.15-.153 1.66-.076 1.887.077.151.153 3.851 2.146 4.304 2.76l-.302-1.15c1.284.076 3.55.306 4.833.46-.302-.384-.604-.69-.83-1.074 1.887-.536 3.775-1.15 5.89-1.532.603-.077 1.283-.307 2.038-.23 0 0 5.361 1.456 5.814 2.069 0 0 2.719 4.139 2.719 4.599 0 0-.906-.307-1.208-.384 0 2.683.075 3.373-1.133 6.669-.604-.154-.906-.307-1.51-.46l-.83 2.835-2.04-.843c-.377.077-1.66 2.836-1.736 3.296 0 .153.755 4.445.83 4.905l-2.114-1.073c-.378-.076-3.474 1.457-3.55 1.61-.15.23-.226.766-.301.996h7.55l.605-1.533c-.151-.153-.83-2.529-.83-2.529.15-.383 1.585-2.76 1.736-2.682.151 0 2.039 2.376 3.247 3.142l.151 1.456-2.492.92-.604 1.303 5.588-.23zM35.716 7.128l-1.208-.153c.076-.23.302-.843.302-.843l.68-.384.981.46.302.69-.15 1.15-.907-.92z"/>
            <path d="M23.484 26.519v5.825h61.54v-5.825h-61.54z"/>
        </g>
    </g>
</svg>
