<svg xmlns="http://www.w3.org/2000/svg" xmlns:xlink="http://www.w3.org/1999/xlink" width="370" height="370" viewBox="0 0 370 370">
    <defs>
        <circle id="a" cx="185" cy="185" r="185"/>
        <linearGradient id="c" x1="50%" x2="50%" y1="1.026%" y2="100%">
            <stop offset="0%" stop-color="#F1F1F1"/>
            <stop offset="100%" stop-color="#DCDDDE"/>
        </linearGradient>
        <linearGradient id="d" x1="50%" x2="73.108%" y1="55.317%" y2="94.761%">
            <stop offset="0%" stop-color="#F8F8F8" stop-opacity="0"/>
            <stop offset="100%" stop-color="#DBD9D9"/>
            <stop offset="100%" stop-color="#DDDBDB"/>
        </linearGradient>
    </defs>
    <g fill="none" fill-rule="evenodd">
        <mask id="b" fill="#fff">
            <use xlink:href="#a"/>
        </mask>
        <use fill="#F7F7F7" xlink:href="#a"/>
        <path fill="#FFF" stroke="#DCDCDC" d="M664.998 518.5H31.002c-1.795 0-3.42-.73-4.596-1.906a6.489 6.489 0 0 1-1.906-4.6V139.006c0-1.796.73-3.421 1.906-4.598a6.481 6.481 0 0 1 4.596-1.908h633.996c1.795 0 3.42.73 4.596 1.906a6.489 6.489 0 0 1 1.906 4.6v372.988c0 1.796-.73 3.421-1.906 4.598a6.481 6.481 0 0 1-4.596 1.908z" mask="url(#b)"/>
        <g mask="url(#b)">
            <path fill="url(#c)" stroke="#C4C4C4" d="M647.5 68.5H.5V6.996a6.47 6.47 0 0 1 1.905-4.591A6.486 6.486 0 0 1 7.002.5h633.996c1.796 0 3.421.727 4.598 1.903a6.473 6.473 0 0 1 1.904 4.593V68.5z" transform="translate(24 122)"/>
            <path fill="#FFF" stroke="#CCC" d="M561.743 180.8H39.155a4.481 4.481 0 0 1-3.18-1.316 4.484 4.484 0 0 1-1.315-3.182v-21.004c0-1.243.502-2.368 1.316-3.182a4.478 4.478 0 0 1 3.179-1.316h522.588c1.242 0 2.366.502 3.18 1.316a4.484 4.484 0 0 1 1.315 3.182v21.004a4.487 4.487 0 0 1-1.316 3.182 4.478 4.478 0 0 1-3.18 1.316z"/>
            <g transform="translate(34 132)">
                <ellipse cx="5.907" cy="5.85" fill="#FF5F57" rx="5.907" ry="5.85"/>
                <ellipse cx="24.084" cy="5.85" fill="#FFBE2F" rx="5.907" ry="5.85"/>
                <ellipse cx="42.261" cy="5.85" fill="#28CA42" rx="5.907" ry="5.85"/>
            </g>
        </g>
        <text font-family="MessinaSans-Regular, Messina Sans" font-size="17">
            <tspan x="61" y="172" fill="#6B9A23">https</tspan> <tspan x="102.837" y="172" fill="#656565">://mrp.brightpoint.net/</tspan> <tspan x="281.371" y="172" fill="#040404" font-family="MessinaSans-SemiBold, Messina Sans" font-weight="500">your-ID</tspan>
        </text>
        <g fill="#7EB52A" fill-rule="nonzero">
            <path d="M55.611 163.75h-1.167v-1.5c0-2.895-2.442-5.25-5.444-5.25s-5.444 2.355-5.444 5.25v1.5h-1.167a.382.382 0 0 0-.389.375v9.375c0 .827.698 1.5 1.556 1.5h10.888c.858 0 1.556-.673 1.556-1.5v-9.375a.382.382 0 0 0-.389-.375zm-5.447 7.834a.367.367 0 0 1-.096.291.396.396 0 0 1-.29.125h-1.556a.396.396 0 0 1-.29-.125.367.367 0 0 1-.096-.291l.245-2.128a1.468 1.468 0 0 1-.637-1.206c0-.827.698-1.5 1.556-1.5.858 0 1.556.673 1.556 1.5 0 .485-.239.927-.637 1.206l.245 2.128zm1.947-7.834H45.89v-1.5c0-1.654 1.396-3 3.111-3 1.715 0 3.111 1.346 3.111 3v1.5z"/>
        </g>
        <g fill="#7EB52A" fill-rule="nonzero" stroke="#FFF" stroke-width="2">
            <path d="M212.447 206.82c.34.634.86 1.172 1.519 1.53l19.746 10.773-19.888 20.01a3.758 3.758 0 0 0-1.096 2.663 3.76 3.76 0 0 0 1.104 2.66l12.715 12.714a3.757 3.757 0 0 0 2.66 1.105 3.758 3.758 0 0 0 2.664-1.096l20.009-19.888 10.772 19.744A3.766 3.766 0 0 0 265.96 259c.94-.073 1.668-.35 2.243-.763a3.63 3.63 0 0 0 1.333-1.81l25.27-75.46a3.767 3.767 0 0 0-.91-3.862 3.762 3.762 0 0 0-3.864-.91l-75.459 25.27a3.766 3.766 0 0 0-2.558 3.242 3.768 3.768 0 0 0 .432 2.113z"/>
        </g>
        <circle cx="185" cy="185" r="184.5" stroke="url(#d)"/>
    </g>
</svg>
