<svg xmlns="http://www.w3.org/2000/svg" width="132" height="23" viewBox="0 0 132 23">
    <g fill="#8D98AA" fill-rule="nonzero">
        <path d="M0 0h4.75v9.177c.146.01.273.026.394.026 2.547 0 5.089-.005 7.636.01.344 0 .435-.104.435-.449-.015-2.733-.005-5.466-.005-8.2V.016H18V23h-4.734V12.945H4.775V22.99H0V0zM127.327 8.615V0h4.597c.06 7.542-.067 15.074.076 22.643h-4.555c-.041-.691-.087-1.387-.133-2.155-.086.098-.132.139-.163.19-.9 1.521-2.28 2.207-3.975 2.305-1.858.108-3.568-.279-4.973-1.604-1.094-1.036-1.69-2.35-1.954-3.82-.433-2.402-.346-4.768.661-7.032 1.543-3.454 4.877-4.46 7.696-3.722a4.6 4.6 0 0 1 2.428 1.557c.077.088.153.175.234.263 0 0 .02-.005.061-.01zm.174 6c0-1.046-.097-2-.469-2.897-.53-1.268-1.43-2.046-2.835-2.093-1.456-.051-2.392.701-2.957 2-.407.928-.545 1.918-.585 2.918-.051 1.269.06 2.527.6 3.697.382.835.967 1.459 1.889 1.68 1.455.351 2.997-.427 3.674-1.855.525-1.12.662-2.31.683-3.45zM113.999 23h-4.418v-.502-9.36c0-.765-.063-1.5-.605-2.094-.696-.761-1.546-.934-2.48-.685-.966.254-1.643.893-1.894 1.917a6.804 6.804 0 0 0-.184 1.532c-.014 2.902-.01 5.798-.01 8.7v.482H100V7.356h4.1c.043.715.086 1.44.13 2.247.106-.132.174-.198.222-.274.947-1.46 2.291-2.217 3.944-2.313.73-.04 1.484-.01 2.195.162 1.904.457 3.166 2.06 3.311 4.11.063.887.087 1.78.092 2.673.01 2.835.005 5.67.005 8.501V23zM34.973 15.642H24.51c-.184 1.471.31 3.58 1.994 4.085.779.231 1.563.257 2.331-.031.779-.293 1.2-.916 1.48-1.672.047-.124.21-.293.316-.293 1.257-.02 2.52-.01 3.776-.01.036 0 .071.02.142.04-.056 1.287-.544 2.382-1.404 3.314-.906.987-2.076 1.45-3.348 1.702-1.68.335-3.354.304-5.007-.17-1.97-.565-3.38-1.8-4.056-3.75-1.053-3.04-1.023-6.096.407-9.018 1.12-2.284 3.089-3.431 5.541-3.76 1.639-.222 3.211.015 4.667.833 1.944 1.09 2.92 2.876 3.394 4.995.275 1.21.285 2.444.229 3.735zm-10.32-2.891h.489c1.44 0 2.88.005 4.325 0 1.043-.005.906.113.784-.91-.296-2.393-1.929-2.99-3.578-2.542-1.353.365-2.07 1.986-2.02 3.452zM46.487 12.3c-.11-.773-.14-1.483-.321-2.152-.256-.936-1.265-1.453-2.333-1.317-.934.12-1.641.883-1.726 1.855-.01.13-.016.266-.02.428H37.69c-.06-1.965.853-3.538 2.71-4.332 2.513-1.077 5.072-1.035 7.571.084 1.786.794 2.574 2.351 2.644 4.285.086 2.367.03 4.745.096 7.118.035 1.343.19 2.676.286 4.019.005.089 0 .183 0 .303h-4.04l-.17-2.06c-.105.121-.18.2-.246.288-1.094 1.453-2.499 2.263-4.305 2.174-.687-.031-1.385-.068-2.052-.235-1.756-.434-2.95-1.965-3.146-3.841-.341-3.204 1.615-5.284 4.1-6.057 1.51-.47 3.07-.523 4.63-.564.196.005.387.005.718.005zm-1.034 2.703c-.155 0-.306-.01-.461 0-.964.083-1.907.24-2.715.862-.742.575-1.023 1.364-.838 2.289.19.962.758 1.578 1.706 1.772 1.069.22 2.178-.356 2.725-1.417.396-.763.481-1.599.507-2.435.05-1.29.165-1.03-.924-1.071zM93.369 12.9c.015-.759.01-1.463-.26-2.128-.336-.817-1.353-1.3-2.364-1.132-.916.153-1.577.857-1.657 1.773-.01.113-.01.226-.02.369h-4.376c-.025-2.044.98-3.284 2.518-4.013 1.532-.724 3.164-.872 4.822-.71.79.08 1.592.237 2.348.488 2.018.665 3.104 2.137 3.214 4.23.035.674.05 1.354.056 2.033.015 1.96-.005 3.92.04 5.88.02.837.165 1.669.255 2.506.015.123.035.241.055.394h-4.066c-.055-.63-.11-1.26-.165-1.94-.085.084-.145.138-.195.202-1.357 1.812-3.23 2.344-5.413 2.088a7.15 7.15 0 0 1-.79-.128c-1.858-.394-3.13-1.852-3.335-3.713-.31-2.831 1.442-4.816 3.865-5.609 1.557-.507 3.184-.56 4.807-.605.2.01.405.015.66.015zm-.942 2.545c-.155 0-.305-.01-.46 0-.937.074-1.853.222-2.649.768-.756.522-1.102 1.36-.896 2.206.22.916.79 1.497 1.752 1.674 1.232.227 2.489-.546 2.894-1.87.175-.567.24-1.182.28-1.778.08-1.221.146-.955-.92-1zM70.978 2v4.81H75v3.078c-.14.01-.29.026-.44.026-1.062 0-2.13.01-3.192-.006-.317-.005-.412.099-.412.39.011 2.371.006 4.743.011 7.109 0 .275.028.555.073.83.122.805.673 1.235 1.718 1.282.707.031 1.413.005 2.153.005v2.979c-1.296.327-2.637.53-4 .493a10.454 10.454 0 0 1-1.974-.229c-1.897-.43-2.898-1.645-2.91-3.466-.016-2.159-.016-4.317-.016-6.476-.005-2.885.006-5.776-.011-8.661 0-.353.083-.53.473-.654 1.351-.43 2.686-.913 4.033-1.375.116-.036.255-.073.472-.135zM82 23h-5V0h5v23zM64 7.016v4.094c-.839.037-1.655.01-2.448.12-2.042.269-3.09 1.402-3.113 3.354-.029 2.64-.011 5.28-.017 7.92V23h-5.179c-.145-5.316.185-10.632-.243-15.958h4.913v2.836l.139.063C59.18 7.575 61.309 6.88 64 7.016z"/>
    </g>
</svg>
