<svg xmlns="http://www.w3.org/2000/svg" xmlns:xlink="http://www.w3.org/1999/xlink" width="121" height="27" viewBox="0 0 121 27">
    <defs>
        <path id="a" d="M.607.47h142.98v38.187H.608z"/>
    </defs>
    <g fill="none" fill-rule="evenodd" transform="matrix(1 0 0 -1 -11 33)">
        <mask id="b" fill="#fff">
            <use xlink:href="#a"/>
        </mask>
        <g mask="url(#b)">
            <path fill="#98A2B2" fill-rule="nonzero" d="M122.526 18.231c0 .256.055.515.167.78.11.264.271.506.485.728.211.222.48.404.804.55a2.71 2.71 0 0 0 1.122.217c.425 0 .79-.072 1.098-.217.306-.146.56-.328.766-.55a2.29 2.29 0 0 0 .458-.728 2.14 2.14 0 0 0 .153-.78h-5.053zm6.764-3.629c-.273-.205-.707-.447-1.302-.729-.596-.28-1.37-.422-2.322-.422-.971 0-1.732.243-2.285.73-.552.485-.838 1.05-.855 1.698h8.524v.614c0 1.005-.127 1.93-.383 2.773-.254.844-.633 1.568-1.135 2.174a5.257 5.257 0 0 1-1.85 1.417c-.732.342-1.582.511-2.552.511s-1.838-.174-2.604-.524a5.91 5.91 0 0 1-1.94-1.392 6.048 6.048 0 0 1-1.211-2.033 7.053 7.053 0 0 1-.421-2.414c0-.955.148-1.828.446-2.62a5.562 5.562 0 0 1 1.302-2.033 5.984 5.984 0 0 1 2.08-1.316c.817-.315 1.735-.473 2.756-.473a8.7 8.7 0 0 1 2.04.217c.597.146 1.112.312 1.546.499.434.187.786.379 1.058.575.273.196.477.336.613.422l-1.505 2.326zm-40.676-.435a4.808 4.808 0 0 0-.765-.447 2.268 2.268 0 0 0-.97-.192c-.494 0-.855.158-1.085.474-.23.314-.344.762-.344 1.34v4.73h3.088v2.888H85.45v3.212h-3.675V22.96h-1.894v-2.888h1.894v-4.524c0-.75.076-1.432.23-2.046.153-.613.408-1.137.765-1.572.357-.434.825-.775 1.403-1.022.579-.246 1.294-.37 2.144-.37 1.361 0 2.62.46 3.778 1.38l-1.481 2.25zm31.815 13.061a4.806 4.806 0 0 1-1.811.972 7.217 7.217 0 0 1-1.967.281 5.64 5.64 0 0 1-1.798-.294 4.584 4.584 0 0 1-1.57-.895c-.46-.4-.83-.907-1.11-1.52-.28-.614-.421-1.347-.421-2.199v-.613h-1.94v-2.888h1.94v-9.1h3.649v9.1h2.833v2.888h-2.833v.664c0 .597.153 1.057.46 1.38.306.324.714.487 1.224.487.324 0 .638-.051.945-.153.306-.103.588-.249.842-.435l1.557 2.325zm-16.15-16.256h3.674V22.96h-3.675V10.972zm-12.809 0h11.197v3.157h-7.343v13.892H91.47V10.97zm-20.993 7.26c0 .255.055.514.166.78.11.263.272.505.485.727.212.222.48.404.804.55.323.145.698.217 1.123.217.425 0 .791-.072 1.097-.217.306-.146.562-.328.766-.55.204-.222.357-.464.46-.728a2.16 2.16 0 0 0 .152-.78h-5.053zm6.764-3.63c-.273-.205-.707-.447-1.302-.729-.596-.28-1.37-.422-2.323-.422-.97 0-1.73.243-2.283.73-.554.485-.839 1.05-.856 1.698h8.524v.614c0 1.005-.127 1.93-.382 2.773-.256.844-.635 1.568-1.137 2.174a5.248 5.248 0 0 1-1.85 1.417c-.73.342-1.582.511-2.552.511s-1.837-.174-2.603-.524a5.9 5.9 0 0 1-1.94-1.392 6.016 6.016 0 0 1-1.21-2.033 7.03 7.03 0 0 1-.422-2.414c0-.955.148-1.828.447-2.62.296-.793.73-1.47 1.3-2.033a5.993 5.993 0 0 1 2.08-1.316c.817-.315 1.736-.473 2.757-.473.766 0 1.446.073 2.041.217.596.146 1.111.312 1.545.499.433.187.787.379 1.058.575.272.196.477.336.613.422l-1.505 2.326zm-29.58-3.63h3.675l.434 11.068 3.727-6.57h1.99l3.522 6.646.485-11.144h3.853l-.791 17.049H60.88l-4.337-8-4.44 8h-3.65l-.791-17.05zm58.454 13.359c-1.134 0-2.07.938-2.07 2.075 0 1.137.936 2.075 2.07 2.075 1.164 0 2.072-.91 2.072-2.075a2.085 2.085 0 0 0-2.072-2.075M25.007 24.267a22.816 22.816 0 0 0 4.606-13.786c0-1.249-.1-2.474-.294-3.67h8.37a1.32 1.32 0 0 1 1.317 1.323V31.31c0 .863-.812 1.502-1.643 1.282a22.797 22.797 0 0 1-12.356-8.325M20.694 6.811a23.12 23.12 0 0 0-.294 3.67c0 5.178 1.717 9.953 4.607 13.787a22.79 22.79 0 0 1-12.356 8.324c-.832.22-1.644-.418-1.644-1.282V8.134c0-.73.59-1.323 1.319-1.323h8.368z"/>
            <path fill="#98A2B2" fill-rule="nonzero" d="M25.007 24.267A22.816 22.816 0 0 1 20.4 10.481c0-1.249.1-2.474.294-3.67h8.624c.193 1.196.294 2.421.294 3.67 0 5.179-1.715 9.953-4.606 13.786"/>
        </g>
    </g>
</svg>
