<svg xmlns="http://www.w3.org/2000/svg" width="44" height="44" viewBox="0 0 44 44">
    <g fill="none" fill-rule="nonzero">
        <path fill="#98A2B2" d="M44 41.945A2.055 2.055 0 0 1 41.948 44H2.053A2.055 2.055 0 0 1 0 41.945V2.053A2.053 2.053 0 0 1 2.053 0h39.895A2.052 2.052 0 0 1 44 2.053v39.892z"/>
        <path fill="#FFF" d="M36.18 21.309s1.573-1.873 3.068-3.325c0 0 .845-.93 1.303-1.102h-1.533s-.593-.02-.92.348c0 0-1.436 1.6-3.87 4.506 0 0 .19.022 3.832 5.71 0 0 .344.501.766.446H41s-.908-.333-4.821-6.58m-1.51 16.395c-1.399.175-2.089-.018-2.089-.018-.747-.04-.767-.6-.767-.6v-3.404c2.338-.071 2.856.025 2.856.025.556.02.708.173.708.173l.248-1.492s-.114.097-1.647.058c0 0 .425 0-2.165-.02l-.005-3.014c-.005-.484.56-.457.56-.457 2.319-.058 2.818.078 2.818.078.536 0 .688.282.688.282l.25-1.216c.098-.242-.536-.214-.536-.214h-.9c-.652.066-.633-.64-.633-.64V22.47v-4.798c.038-.736.437-.787.437-.787h-.895c3.428-10.643 3.85-10.826 3.85-10.826-1.608.136-2.299.02-2.299.02.614.23.135 1.334.135 1.334-1.093 3.79-2.033 6.19-2.033 6.19-1.416-3.52-1.782-4.448-1.782-4.448C30.395 6.35 30.472 6 30.472 6c-1.379.154-2.281 0-2.281 0 .384.154.147.93.147.93-1.112 3.812-1.984 6.15-1.984 6.15-2.088-4.14-2.728-6.27-2.728-6.27-.288-.889-.69-.772-.69-.772-6.535.071-7.752-.02-7.752-.02.708.114.651 1.722.651 1.722v7.198l-4.179-6.714c-.92-1.505-.845-2.165-.845-2.165h-3.22c.519.347.496 1.586.496 1.586.234 3.52-.056 8.416-.056 8.416-.056.93-.957.93-.957.93h2.55c1.014.096.344 1.548.344 1.548L8.07 21.924S6.292 18.54 5.88 18.01c-.699-.893-1.306-1.08-1.306-1.08H2s.957.17 2.089 1.532c1.159 1.393 1.784 2.96 2.226 3.708.48.815.546 1.507.546 1.73v2.731c-.034 1.027-.955 1.295-.955 1.295l1.476-.02c1.072-.058 1.111 1.588 1.111 1.588.057 4.137 0 7.51 0 7.51.02 1.604-.768 1.86-.768 1.86a32.643 32.643 0 0 1 3.834.02c1.849.192 2.109.034 2.109.034.449-.103.477-.404.477-.404l.23-1.322c-.364.568-1.034.644-1.034.644-.613.126-2.376.026-2.376.026s-.804-.059-.767-.58c0 0-.153-4.709.059-8.618 0 0-.02-.87 1.014-.95H9.429c-.939-.135-.939-.791-.939-.791v-2.555c-.035-.524.354-1.354.646-1.896.172-.322.312-.542.312-.542 2.782-4.917 3.187-5.014 3.187-5.014h-2.169c-.489-.022-.89-.4-.947-.89V8.419c4.828 7.371 5.568 8.726 5.568 8.726-2.05.387-2.702 2.074-2.702 2.074-.545 1.127-.596 2.54-.58 3.25.006.305.024.484.024.484.038 3.036 1.036 3.79 1.036 3.79.69.831 2.165 1.065 2.165 1.065.805.193.786 1.567.786 1.567v3.87c-.02 4.102-.326 4.856-.326 4.856-.154.715-.653.754-.653.754 2.242-.174 3.471.078 3.471.078-.69-.286-.69-.872-.69-.872-.095-4.758 0-8.667 0-8.667-.019-1.257.767-1.566.767-1.566 1.8-.465 2.088-1.123 2.088-1.123 1.094-1.152 1.14-3.386 1.112-4.237-.008-.252-.02-.388-.02-.388.01-2.351-1.112-3.598-1.112-3.598-.766-.968-2.318-1.43-2.318-1.43l3.949.02c1.15.115 1.133 1.896 1.133 1.896a31.75 31.75 0 0 1 .148 3.504c-.024 2.009-.176 3.613-.176 3.613-.152 1.761-.92 1.624-.92 1.624h-.999c.653.194.557 1.823.557 1.823.115 3.947-.172 8.225-.172 8.225-.077.947-.709 1.161-.709 1.161 1.86-.174 3.125 0 3.125 0-.574-.134-.556-1.373-.556-1.373l-.038-3.6c2.413-.115 3.142.039 3.142.039.478-.019.67.175.67.175l.307-1.585c-.212.117-1.685.08-1.685.08h-2.413v-3.317c.018-.347.574-.327.574-.327 2.395-.135 2.912.046 2.912.046.537.038.574.203.574.203l.213-1.042c.153-.43-.324-.346-.324-.346h-1.438c-1.056.077-.921-.832-.921-.832v-8.511c.02-.542.459-.6.459-.6 1.246-.251 2.031.02 2.031.02.94.256.978 1.18.978 1.18.25 1.044-.574 1.857-.574 1.857-.557.561-1.514.541-1.514.541-.425-.076-.213.195-.213.195.085.239.18.49.284.754.893 2.265 2.275 5.089 2.275 5.089.152.238.42.372.7.348.469.047.441.715.441.715.076 4.568-.078 8.67-.078 8.67-.094 1.45-.65 1.586-.65 1.586 2.51-.156 3.2.019 3.2.019 3.141.195 3.259.039 3.259.039.345.02.403-.698.403-.698l.286-1.359c-.288.91-1.706.823-1.706.823M18.935 19.024s.624.91.672 3.004c0 0 .108 2.477-.506 3.854 0 0-.645 1.563-2.675 1.502 0 0-1.341.024-2.165-1.462 0 0-.67-1.107-.556-3.893 0 0-.037-2.11.567-3.004a2.718 2.718 0 0 1 2.498-1.236s1.447-.087 2.165 1.238m6.611-2.42c0 .272-.295.311-.295.311h-2.405c.2-1.944.192-2.183.192-2.183-.403.726-.691.775-.691.775-.651.347-3.66.27-3.66.27-.881-.009-.977-.735-.977-.735-.059-1.74 0-3.118 0-3.118a.168.168 0 0 1 .153-.117c3.297-.116 3.353.136 3.353.136l.192-1.588c-.21.073-.43.12-.651.14-1.842.098-3.046.035-3.046.035v-2.42c-.039-.95.67-.95.67-.95 2.09-.096 2.454 0 2.454 0 .9-.037 1.204.852 1.204.852 2.088 4.16 3.086 6.87 3.086 6.87.554 1.43.42 1.72.42 1.72M30.759 26.8s-1.302-1.912-2.683-4.99c0 0 .997-.114 1.63-.714 0 0 .785-.562.746-1.936 0 0-.07-1.46-1.245-1.954 0 0-.421-.33-2.356-.29 0 0 .057-.465.142-.823 0 0 .93-3.337 2.386-7.458 0 0 1.053 2.303 2.837 7.51.092.236.15.483.172.735h-.824s.51.097.645 1.645c0 0 .229 4.101-.02 8.804 0 0 .008.532-.193.532 0 0-.432.214-1.237-1.055"/>
    </g>
</svg>
