<svg xmlns="http://www.w3.org/2000/svg" width="127" height="19" viewBox="0 0 127 19">
    <g fill="#98A2B2" fill-rule="evenodd">
        <path d="M7.787 9.2l.74-4.013h1.705c1.287 0 3.177.221 2.855 1.887-.321 1.665-1.383 2.127-2.814 2.127H7.787zM6.033 19l1.014-5.625h3.04c5.301 0 8.068-2.429 8.801-6.301C19.532 3.34 17.416 1 12.115 1H3.212L0 19h6.033zM26.442 12.833h-3.757l2.99-6.435.767 6.435zM19.783 19l1.091-2.388h5.918l.27 2.388H33L29.708 1h-6.026L14 19h5.783zM42.983 12.338L52 1h-6.732l-4.341 6.074L38.822 1H32l4.856 11.431L35.64 19h6.127l1.216-6.662z"/>
        <path d="M65.974 7.379C66.294 2.75 63.676 0 58.016 0c-5.073 0-9.75 3.656-10.807 9.478-1.057 5.823 1.943 9.519 8.025 9.519 4.713.121 8.891-2.962 10.092-7.446h-5.775c-.553 1.717-1.698 3.025-3.628 3.025-3.068 0-3.212-2.348-2.727-4.917.64-3.474 2.202-5.239 4.357-5.239 1.882 0 2.89 1.087 2.727 2.938l5.694.02zM71.03 19l1.246-6.977h5.709L76.739 19h6.037L86 1h-6.037L78.86 7.074h-5.709L74.254 1h-6.03L65 19h6.03zM100.143 19l.727-4.227h-9.158l.499-2.837h7.48l.721-4.187h-7.48l.458-2.562h8.835L103 1H88.221L85 19h15.143z"/>
        <path d="M110.824 13.916L112.876 19h6.907l-4.667-9.358L123 1h-6.858l-3.501 4.589L110.824 1h-6.858l4.383 8.642L100 19h6.906l3.918-5.084zM124.67 3.16h.241l.49.911h.538l-.538-.967c.265 0 .482-.16.482-.536 0-.375-.322-.647-.86-.647h-.802v2.15h.482V3.16h-.033zm0-.376v-.488h.33c.16 0 .377 0 .377.216s-.113.272-.33.272h-.377zm2.328.216a1.914 1.914 0 0 0-.56-1.435A1.93 1.93 0 0 0 125 1a1.963 1.963 0 0 0-1.426.571 1.946 1.946 0 0 0-.573 1.42c-.016.534.19 1.05.567 1.43.378.38.895.588 1.432.577a1.93 1.93 0 0 0 1.438-.564c.38-.38.583-.9.56-1.435zm-.594 0c.025.388-.112.768-.378 1.052a1.423 1.423 0 0 1-1.026.45 1.391 1.391 0 0 1-1.038-.44A1.38 1.38 0 0 1 123.595 3c-.034-.39.099-.777.366-1.065A1.4 1.4 0 0 1 125 1.489c.39.006.761.17 1.027.456.265.286.401.667.377 1.055z"/>
    </g>
</svg>
