<svg xmlns="http://www.w3.org/2000/svg" width="138" height="34" viewBox="0 0 138 34">
    <g fill="#98A2B2" fill-rule="nonzero">
        <path d="M21.637 20.607c0 .568-.46 1.03-1.028 1.033h-7.213a1.033 1.033 0 0 1-1.028-1.033v-7.214c0-.568.46-1.028 1.028-1.028h7.213a1.033 1.033 0 0 1 1.028 1.028v7.214zm6.179 5.41c0 .996-.807 1.803-1.802 1.803H7.986a1.807 1.807 0 0 1-1.802-1.802V7.988c.003-.995.808-1.8 1.802-1.803h18.028c.995 0 1.802.807 1.802 1.802v18.03zM28.33 0H5.665A5.685 5.685 0 0 0 0 5.666v22.668A5.68 5.68 0 0 0 5.665 34H28.33A5.68 5.68 0 0 0 34 28.334V5.666A5.685 5.685 0 0 0 28.33 0M48.993 28a7.288 7.288 0 0 1-5.153-2.091A6.172 6.172 0 0 1 42 21.556h1.985a4.16 4.16 0 0 0 1.255 2.93 5.302 5.302 0 0 0 3.762 1.51c2.766 0 5.013-1.954 5.013-4.348 0-1.797-.969-3.224-5.812-4.348-1.937-.454-3.264-1.065-4.145-1.915a4.91 4.91 0 0 1-1.351-3.713c0-3.126 2.78-5.672 6.199-5.672a6.542 6.542 0 0 1 4.358 1.598 5.394 5.394 0 0 1 1.86 4.074h-1.981c0-2.017-1.898-3.659-4.237-3.659-2.34 0-4.223 1.676-4.223 3.66 0 1.831.61 2.93 4 3.693 3.612.845 7.307 2.252 7.317 6.292a6.021 6.021 0 0 1-2.082 4.524A7.337 7.337 0 0 1 49.008 28h-.015zM67.122 13.775a5.988 5.988 0 0 0-4.449 1.815 6.203 6.203 0 0 0-1.749 4.54A6.161 6.161 0 0 0 62.7 24.61a5.948 5.948 0 0 0 4.419 1.766c3.42 0 6.193-2.82 6.193-6.3s-2.773-6.3-6.193-6.3M73.066 34v-8.915h-.059a6.864 6.864 0 0 1-5.875 3.063C62.6 28.148 59 24.687 59 20.045c0-4.641 3.682-8.043 8.132-8.043a6.82 6.82 0 0 1 5.875 3.093h.06v-2.7H75V34h-1.934zM103.113 13.764a6.024 6.024 0 0 0-4.446 1.801 6.109 6.109 0 0 0-1.747 4.493 6.068 6.068 0 0 0 1.775 4.433 5.984 5.984 0 0 0 4.418 1.752c3.422 0 6.197-2.794 6.197-6.24 0-3.445-2.775-6.239-6.197-6.239m5.952 13.874v-2.673h-.054a6.942 6.942 0 0 1-5.879 3.033c-4.531 0-8.132-3.427-8.132-8.024 0-4.597 3.68-7.97 8.132-7.97a6.762 6.762 0 0 1 5.879 3.067h.054v-2.673H111v15.24h-1.935zM116.857 18.874V28H115V12.399h1.857v2.256h.052c.8-2.019 2.205-2.524 4.091-2.655v2.115c-2.549.227-4.143 1.963-4.143 4.76M129.992 13.767a6.058 6.058 0 0 0-5.954 5.245h11.967a6.088 6.088 0 0 0-6.013-5.245m7.988 7.012h-13.977c.14 3.027 2.943 5.548 5.954 5.548a5.79 5.79 0 0 0 5.493-3.618h2.073a7.998 7.998 0 0 1-15.473-3.602A7.998 7.998 0 0 1 129.957 12 8.173 8.173 0 0 1 138 20.218c0 .193-.03.362-.03.56M90.186 27.628v-2.431h-.057C89.265 27.114 87.342 28 85.39 28s-3.875-.715-5.092-2.345C79.243 24.255 79 22.368 79 20.622V12h1.909v8.596c0 3.232 1.107 5.602 4.496 5.602a4.108 4.108 0 0 0 3.14-1.258c1.303-1.314 1.546-2.859 1.546-4.68V12H92v15.628h-1.814z"/>
    </g>
</svg>
