<svg xmlns="http://www.w3.org/2000/svg" width="122" height="31" viewBox="0 0 122 31">
    <g fill="none" fill-rule="evenodd">
        <path fill="#98A2B2" d="M0 0v24.048L19.973 31 40 24.048V0H0z"/>
        <path fill="#FFF" d="M20 23.526h-6.022V21.44C12.787 23.119 11.082 24 8.647 24 5.757 24 3 22.186 3 18.371V7.033h6.246v8.724c0 1.86.23 3.208 2.066 3.208 1.014 0 2.436-.514 2.436-3.208V7H20v16.526zM31.735 12.085a1.491 1.491 0 0 0-.762-1.178 2.095 2.095 0 0 0-1.476-.521c-.803 0-1.898.228-1.898 1.27a.937.937 0 0 0 .762.865c1.088.456 3.517.547 5.7 1.302C36.102 14.475 38 15.64 38 18.277 38 22.776 33.585 24 29.449 24c-3.986 0-8.306-1.543-8.449-5.723h6.122c.073.574.382 1.096.858 1.452a2.917 2.917 0 0 0 1.707.456c.81 0 2.19-.274 2.19-1.231 0-.957-.618-1.178-3.612-1.68-4.89-.82-6.884-2.363-6.884-5.091 0-4.141 4.64-5.183 7.98-5.183 3.7 0 8.068.95 8.21 5.085h-5.836z"/>
        <path fill="#98A2B2" d="M43 0h6.301v8.26h.094c1.068-1.455 2.742-2.297 4.508-2.269 5.552 0 7.097 4.843 7.097 8.884C61 19.17 58.712 24 54.037 24c-3.077 0-4.06-1.252-4.897-2.318h-.046v1.834H43V0zm8.843 10.772c-2.241 0-2.75 2.172-2.75 4.2 0 2.027.509 4.303 2.75 4.303 2.24 0 2.802-2.27 2.802-4.297 0-2.027-.515-4.2-2.802-4.2v-.006z"/>
        <path fill="#98A2B2" d="M78.243 19.944A6.525 6.525 0 0 0 79 23.543h-6.466a4.374 4.374 0 0 1-.23-1.548h-.047C70.905 23.543 68.878 24 66.85 24 63.641 24 61 22.452 61 19.076c0-5.062 6.182-4.925 9.46-5.512.85-.138 1.75-.366 1.75-1.418 0-1.051-1.041-1.547-2.129-1.547-1.98 0-2.358.953-2.358 1.685h-5.987C61.878 7.712 66.358 7 70.318 7c8.02 0 7.925 3.187 7.925 6.335v6.61zm-6.08-3.644a9.002 9.002 0 0 1-2.5.77c-1.467.32-2.217.686-2.217 1.777 0 .732.845 1.463 1.98 1.463.709.038 1.403-.21 1.915-.686a2.435 2.435 0 0 0 .787-1.822v-1.528l.034.026zM81 6.369h5.992v2.104h.093C88.279 6.838 89.889 6 92.424 6 95.327 6 98 7.823 98 11.609V23h-6.203v-8.678c0-1.963-.225-3.276-2.026-3.276-1.103 0-2.535.563-2.535 3.183v8.744H81.02V6.37H81zM101 0h6.182v11.145l3.937-4.913h7.008l-5.768 6.334L119 23h-7.468l-3.248-5.995-1.102 1.224V23H101V0z"/>
        <path fill="#105293" d="M121.458 20.542c.228.256.335.597.295.937.032.324-.075.646-.295.887-.25.277-.615.42-.986.387a.866.866 0 0 1-.83-.387.95.95 0 0 1-.395-.887.986.986 0 0 1 .394-.937 1.19 1.19 0 0 1 .831-.394c.365.012.713.152.986.394zm.147-.148a1.859 1.859 0 0 0-1.133-.394 1.478 1.478 0 0 0-1.028.394 1.528 1.528 0 0 0-.443 1.085c-.013.391.15.768.443 1.027.24.324.625.508 1.028.493a1.5 1.5 0 0 0 1.133-.493c.26-.278.402-.647.395-1.027a1.725 1.725 0 0 0-.395-1.085zm-.887 1.007h-.542v-.563h.247a.528.528 0 0 1 .394.098c.05 0 .05.099.05.247a.45.45 0 0 1-.149.246v-.028zm-.837.838h.295v-.591h.247c.148 0 .246 0 .295.049a.45.45 0 0 1 .148.345v.197h.345c-.098 0-.098-.05-.098-.05v-.246a.444.444 0 0 0-.05-.246.268.268 0 0 0-.246-.148c.05-.099.148-.099.246-.148.099-.05.148-.197.148-.345 0-.148-.098-.296-.345-.394a2.654 2.654 0 0 0-.394-.05h-.591v1.627z"/>
    </g>
</svg>
